# Blender 3.2.1
# www.blender.org
mtllib curve.mtl
o 立方体
v 0.029178 0.253478 0.365169
v 0.029178 0.378353 0.365169
v 0.029178 0.253478 -0.365169
v 0.029178 0.378353 -0.365169
v -0.029178 0.253478 0.365169
v -0.029178 0.378353 0.365169
v -0.029178 0.253478 -0.365169
v -0.029178 0.378353 -0.365169
v 0.376121 0.253478 0.000000
v 0.029178 0.315916 0.365169
v 0.376121 0.378353 0.000000
v 0.029178 0.315916 -0.365169
v 0.000000 0.253478 -0.365169
v 0.000000 0.378353 -0.365169
v -0.029178 0.315916 -0.365169
v 0.317764 0.253478 0.000000
v 0.317764 0.378353 0.000000
v -0.029178 0.315916 0.365169
v 0.000000 0.253478 0.365169
v 0.000000 0.378353 0.365169
v 0.346943 0.378353 0.000000
v 0.312981 0.253478 0.000000
v 0.000000 0.315916 0.365169
v 0.317764 0.315916 0.000000
v 0.000000 0.315916 -0.365169
v 0.376121 0.315916 0.000000
vn 0.7250 -0.0000 -0.6888
vn -0.0000 -0.0000 -1.0000
vn -0.7250 -0.0000 -0.6888
vn -0.0000 -0.0000 1.0000
vn -0.0000 -1.0000 -0.0000
vn -0.0000 1.0000 -0.0000
vn -0.7250 -0.0000 0.6888
vn 0.7250 -0.0000 0.6888
vt 0.125000 0.750000
vt 0.375000 1.000000
vt 0.375000 0.000000
vt 0.625000 1.000000
vt 0.875000 0.750000
vt 0.625000 0.000000
vt 0.125000 0.500000
vt 0.375000 0.250000
vt 0.875000 0.500000
vt 0.625000 0.250000
vt 0.375000 0.750000
vt 0.625000 0.750000
vt 0.375000 0.500000
vt 0.625000 0.500000
vt 0.125000 0.625000
vt 0.375000 0.125000
vt 0.500000 1.000000
vt 0.500000 0.000000
vt 0.875000 0.625000
vt 0.625000 0.125000
vt 0.500000 0.250000
vt 0.250000 0.500000
vt 0.375000 0.375000
vt 0.750000 0.500000
vt 0.625000 0.375000
vt 0.500000 0.500000
vt 0.375000 0.625000
vt 0.625000 0.625000
vt 0.500000 0.750000
vt 0.250000 0.750000
vt 0.375000 0.875000
vt 0.750000 0.750000
vt 0.625000 0.875000
vt 0.750000 0.625000
vt 0.250000 0.625000
vt 0.500000 0.875000
vt 0.500000 0.625000
vt 0.500000 0.375000
vt 0.500000 0.125000
s 0
f 26/39/1 12/21/1 4/10/1 11/20/1
f 25/38/2 15/26/2 8/14/2 14/25/2
f 24/37/3 18/29/3 6/12/3 17/28/3
f 23/36/4 10/17/4 2/4/4 20/33/4
f 22/35/5 19/30/5 5/11/5 16/27/5
f 21/34/6 20/32/6 2/5/6 11/19/6
f 17/28/6 6/12/6 20/32/6 21/34/6
f 8/14/6 17/28/6 21/34/6 14/24/6
f 14/24/6 21/34/6 11/19/6 4/9/6
f 9/15/5 1/1/5 19/30/5 22/35/5
f 3/7/5 9/15/5 22/35/5 13/22/5
f 13/22/5 22/35/5 16/27/5 7/13/5
f 19/31/4 1/2/4 10/17/4 23/36/4
f 5/11/4 19/31/4 23/36/4 18/29/4
f 18/29/4 23/36/4 20/33/4 6/12/4
f 16/27/3 5/11/3 18/29/3 24/37/3
f 7/13/7 16/27/7 24/37/7 15/26/7
f 15/26/7 24/37/7 17/28/7 8/14/7
f 13/23/2 7/13/2 15/26/2 25/38/2
f 3/8/2 13/23/2 25/38/2 12/21/2
f 12/21/2 25/38/2 14/25/2 4/10/2
f 9/16/1 3/8/1 12/21/1 26/39/1
f 1/3/8 9/16/8 26/39/8 10/18/8
f 10/18/8 26/39/8 11/20/8 2/6/8
